<svg xmlns="http://www.w3.org/2000/svg" xmlns:xlink="http://www.w3.org/1999/xlink" width="355" zoomAndPan="magnify" viewBox="0 0 266.25 123.749996" height="165" preserveAspectRatio="xMidYMid meet" version="1.0"><defs><g/></defs><g fill="#000000" fill-opacity="1"><g transform="translate(13.258237, 77.681462)"><g><path d="M 3.960938 0.394531 C 6.054688 0.394531 8.261719 -0.226562 10.300781 -0.0546875 C 11.769531 0.0546875 12.730469 -0.226562 13.976562 -1.300781 C 16.183594 -3.167969 16.296875 -6 16.070312 -8.941406 C 16.015625 -8.941406 16.070312 -9.335938 16.070312 -9.621094 C 16.070312 -13.183594 15.503906 -13.808594 11.996094 -13.636719 C 6.335938 -13.355469 5.714844 -12.335938 2.941406 -9.054688 C 1.414062 -7.242188 1.527344 -3.960938 1.867188 -0.90625 C 1.925781 -0.394531 3.28125 0.394531 3.960938 0.394531 Z M 10.128906 -9.902344 L 9.621094 -10.355469 C 10.355469 -11.148438 11.261719 -11.941406 11.996094 -12.675781 C 12.109375 -12.503906 12.28125 -12.335938 12.394531 -12.28125 C 11.65625 -11.429688 10.921875 -10.695312 10.128906 -9.902344 Z M 10.921875 -7.527344 L 10.921875 -8.09375 C 13.355469 -10.355469 13.523438 -11.941406 13.523438 -10.921875 C 13.523438 -10.695312 13.75 -10.636719 13.863281 -10.015625 C 12.617188 -9.222656 12.84375 -8.261719 10.921875 -7.527344 Z M 3.566406 -0.679688 C 3 -0.621094 2.714844 -0.960938 2.714844 -1.527344 C 2.714844 -3.679688 2.261719 -6.222656 3.28125 -7.695312 C 3.847656 -8.542969 9.054688 -8.714844 9.621094 -8.035156 C 10.636719 -6.847656 10.128906 -4.695312 10.582031 -2.941406 C 10.75 -2.207031 10.128906 -1.527344 9.394531 -1.472656 C 7.355469 -1.300781 5.546875 -0.90625 3.566406 -0.679688 Z M 11.941406 -2.546875 C 11.941406 -2.714844 11.941406 -2.886719 11.996094 -3 C 14.089844 -6.28125 13.695312 -6.222656 15.050781 -6.335938 C 15.164062 -6.054688 15.164062 -6.789062 15.164062 -5.375 C 13.863281 -4.527344 12.902344 -3.28125 11.941406 -2.546875 Z M 11.941406 -2.546875 "/></g></g></g><g fill="#000000" fill-opacity="1"><g transform="translate(31.534819, 77.681462)"><g><path d="M 3.960938 0.394531 C 6.054688 0.394531 8.261719 -0.226562 10.300781 -0.0546875 C 11.769531 0.0546875 12.730469 -0.226562 13.976562 -1.300781 C 16.183594 -3.167969 16.296875 -6 16.070312 -8.941406 C 16.015625 -8.941406 16.070312 -9.335938 16.070312 -9.621094 C 16.070312 -13.183594 15.503906 -13.808594 11.996094 -13.636719 C 6.335938 -13.355469 5.714844 -12.335938 2.941406 -9.054688 C 1.414062 -7.242188 1.527344 -3.960938 1.867188 -0.90625 C 1.925781 -0.394531 3.28125 0.394531 3.960938 0.394531 Z M 10.128906 -9.902344 L 9.621094 -10.355469 C 10.355469 -11.148438 11.261719 -11.941406 11.996094 -12.675781 C 12.109375 -12.503906 12.28125 -12.335938 12.394531 -12.28125 C 11.65625 -11.429688 10.921875 -10.695312 10.128906 -9.902344 Z M 10.921875 -7.527344 L 10.921875 -8.09375 C 13.355469 -10.355469 13.523438 -11.941406 13.523438 -10.921875 C 13.523438 -10.695312 13.75 -10.636719 13.863281 -10.015625 C 12.617188 -9.222656 12.84375 -8.261719 10.921875 -7.527344 Z M 3.566406 -0.679688 C 3 -0.621094 2.714844 -0.960938 2.714844 -1.527344 C 2.714844 -3.679688 2.261719 -6.222656 3.28125 -7.695312 C 3.847656 -8.542969 9.054688 -8.714844 9.621094 -8.035156 C 10.636719 -6.847656 10.128906 -4.695312 10.582031 -2.941406 C 10.75 -2.207031 10.128906 -1.527344 9.394531 -1.472656 C 7.355469 -1.300781 5.546875 -0.90625 3.566406 -0.679688 Z M 11.941406 -2.546875 C 11.941406 -2.714844 11.941406 -2.886719 11.996094 -3 C 14.089844 -6.28125 13.695312 -6.222656 15.050781 -6.335938 C 15.164062 -6.054688 15.164062 -6.789062 15.164062 -5.375 C 13.863281 -4.527344 12.902344 -3.28125 11.941406 -2.546875 Z M 11.941406 -2.546875 "/></g></g></g><g fill="#000000" fill-opacity="1"><g transform="translate(49.8114, 77.681462)"><g><path d="M 3.960938 0.394531 C 6.054688 0.394531 8.261719 -0.226562 10.300781 -0.0546875 C 11.769531 0.0546875 12.730469 -0.226562 13.976562 -1.300781 C 16.183594 -3.167969 16.296875 -6 16.070312 -8.941406 C 16.015625 -8.941406 16.070312 -9.335938 16.070312 -9.621094 C 16.070312 -13.183594 15.503906 -13.808594 11.996094 -13.636719 C 6.335938 -13.355469 5.714844 -12.335938 2.941406 -9.054688 C 1.414062 -7.242188 1.527344 -3.960938 1.867188 -0.90625 C 1.925781 -0.394531 3.28125 0.394531 3.960938 0.394531 Z M 10.128906 -9.902344 L 9.621094 -10.355469 C 10.355469 -11.148438 11.261719 -11.941406 11.996094 -12.675781 C 12.109375 -12.503906 12.28125 -12.335938 12.394531 -12.28125 C 11.65625 -11.429688 10.921875 -10.695312 10.128906 -9.902344 Z M 10.921875 -7.527344 L 10.921875 -8.09375 C 13.355469 -10.355469 13.523438 -11.941406 13.523438 -10.921875 C 13.523438 -10.695312 13.75 -10.636719 13.863281 -10.015625 C 12.617188 -9.222656 12.84375 -8.261719 10.921875 -7.527344 Z M 3.566406 -0.679688 C 3 -0.621094 2.714844 -0.960938 2.714844 -1.527344 C 2.714844 -3.679688 2.261719 -6.222656 3.28125 -7.695312 C 3.847656 -8.542969 9.054688 -8.714844 9.621094 -8.035156 C 10.636719 -6.847656 10.128906 -4.695312 10.582031 -2.941406 C 10.75 -2.207031 10.128906 -1.527344 9.394531 -1.472656 C 7.355469 -1.300781 5.546875 -0.90625 3.566406 -0.679688 Z M 11.941406 -2.546875 C 11.941406 -2.714844 11.941406 -2.886719 11.996094 -3 C 14.089844 -6.28125 13.695312 -6.222656 15.050781 -6.335938 C 15.164062 -6.054688 15.164062 -6.789062 15.164062 -5.375 C 13.863281 -4.527344 12.902344 -3.28125 11.941406 -2.546875 Z M 11.941406 -2.546875 "/></g></g></g><g fill="#000000" fill-opacity="1"><g transform="translate(68.087981, 77.681462)"><g><path d="M 5.035156 0.960938 C 7.867188 1.925781 15.335938 0.0546875 18.277344 -0.0546875 C 24.84375 -0.394531 29.425781 -4.808594 32.652344 -9.5625 C 37.347656 -16.46875 35.367188 -25.804688 35.648438 -34.007812 C 35.707031 -37.121094 34.460938 -37.96875 31.347656 -37.742188 C 28.972656 -37.574219 26.425781 -37.179688 24.730469 -37.121094 C 19.125 -36.894531 13.46875 -37.007812 7.695312 -36.726562 C 5.886719 -36.667969 1.132812 -32.765625 1.132812 -31.121094 C 1.132812 -27.898438 1.359375 -24.898438 1.585938 -21.84375 C 1.925781 -18.164062 2.320312 -14.375 2.886719 -10.863281 C 3.394531 -7.355469 4.695312 -2.828125 4.695312 0.621094 C 4.695312 0.90625 4.867188 0.90625 5.035156 0.960938 Z M 31.347656 -34.007812 C 31.121094 -34.179688 30.445312 -34.007812 30.726562 -34.6875 C 31.6875 -35.308594 32.707031 -35.761719 33.214844 -36.667969 C 33.328125 -36.441406 34.007812 -36.441406 33.78125 -35.988281 C 32.992188 -35.308594 32.367188 -34.519531 31.347656 -34.007812 Z M 7.980469 -33.667969 C 9.222656 -35.648438 10.300781 -36.328125 11.542969 -35.933594 C 9.902344 -33.726562 9.222656 -33.214844 7.980469 -33.667969 Z M 10.410156 -33.5 C 11.65625 -34.632812 12.617188 -36.101562 14.542969 -36.101562 C 13.523438 -34.121094 12.335938 -33.386719 10.410156 -33.5 Z M 14.488281 -33.214844 C 14.261719 -33.441406 13.808594 -33.441406 13.863281 -33.953125 C 14.824219 -34.519531 15.617188 -35.027344 16.296875 -35.933594 C 16.863281 -35.933594 16.804688 -35.421875 16.917969 -35.199219 C 16.183594 -34.460938 15.050781 -34.121094 14.488281 -33.214844 Z M 4.695312 -33.386719 C 5.886719 -34.121094 6.847656 -34.972656 7.921875 -35.761719 C 8.035156 -35.480469 8.207031 -35.367188 8.261719 -35.199219 C 7.1875 -34.519531 6.734375 -32.992188 4.695312 -33.386719 Z M 16.804688 -34.066406 C 17.710938 -34.632812 18.449219 -35.199219 19.410156 -35.761719 C 19.464844 -35.480469 19.523438 -35.367188 19.691406 -35.199219 C 19.011719 -34.519531 18.390625 -33.5 16.804688 -34.066406 Z M 30.613281 -29.878906 C 30.332031 -29.878906 30.332031 -30.160156 30.273438 -30.386719 C 31.460938 -31.179688 32.992188 -31.972656 34.007812 -33.046875 C 34.6875 -33.046875 34.460938 -32.480469 34.632812 -32.3125 C 33.273438 -31.460938 32.085938 -30.386719 30.613281 -29.878906 Z M 6.222656 0 C 5.660156 0 5.207031 -0.394531 5.207031 -0.90625 C 5.207031 -10.410156 2.039062 -20.824219 2.039062 -30.671875 C 2.039062 -31.011719 2.320312 -31.292969 2.714844 -31.292969 C 3.621094 -31.292969 4.355469 -31.40625 5.261719 -31.347656 C 11.488281 -30.785156 17.597656 -31.6875 23.765625 -31.6875 C 25.011719 -31.6875 26.371094 -31.859375 27.671875 -31.859375 C 29.140625 -31.859375 29.480469 -31.066406 29.480469 -29.820312 C 29.480469 -23.765625 31.066406 -16.976562 29.140625 -11.035156 C 26.710938 -3.566406 24.84375 -1.8125 16.917969 -0.90625 C 14.203125 -0.621094 10.242188 0 6.222656 0 Z M 30.386719 -27.898438 C 30.332031 -28.066406 30.105469 -28.238281 30.046875 -28.351562 C 32.027344 -29.085938 32.933594 -30.160156 34.347656 -31.179688 C 34.574219 -31.011719 34.6875 -30.726562 34.859375 -30.5 C 33.386719 -29.59375 33.214844 -28.351562 30.386719 -27.898438 Z M 11.769531 -5.261719 C 16.46875 -3.339844 23.371094 -7.414062 23.710938 -12.28125 C 23.878906 -15.675781 23.824219 -19.125 23.371094 -22.410156 C 22.691406 -27.445312 22.523438 -27.386719 17.257812 -27.386719 C 16.75 -27.386719 16.128906 -27.386719 15.503906 -27.332031 L 15.503906 -27.21875 C 13.582031 -27.160156 11.769531 -27.558594 9.902344 -27.105469 C 8.601562 -26.765625 7.582031 -26.085938 8.542969 -24.445312 C 8.882812 -23.765625 8.828125 -22.972656 8.882812 -22.296875 C 9.449219 -17.542969 10.015625 -12.675781 10.410156 -7.753906 C 10.46875 -6.902344 10.976562 -5.546875 11.769531 -5.261719 Z M 20.542969 -10.976562 C 19.070312 -11.148438 16.863281 -9.675781 16.296875 -12.617188 C 15.503906 -16.976562 14.9375 -21.617188 14.429688 -25.859375 C 14.769531 -26.257812 14.769531 -26.257812 14.824219 -26.257812 C 21.332031 -26.257812 22.125 -26.597656 22.691406 -20.429688 C 22.917969 -17.9375 22.691406 -15.617188 22.859375 -13.183594 C 22.917969 -11.65625 22.125 -10.863281 20.542969 -10.976562 Z M 12.28125 -10.976562 C 11.828125 -10.863281 11.996094 -11.316406 11.828125 -11.375 C 12.617188 -12.222656 12.617188 -13.523438 14.089844 -13.808594 C 14.203125 -13.695312 14.316406 -13.582031 14.542969 -13.410156 C 13.355469 -12.335938 13.070312 -11.714844 12.28125 -10.976562 Z M 31.347656 -10.1875 C 31.066406 -11.429688 31.066406 -11.429688 32.933594 -12.84375 C 32.367188 -11.996094 31.972656 -11.148438 31.347656 -10.1875 Z M 12.675781 -7.355469 C 12.617188 -7.527344 12.167969 -7.242188 12.222656 -7.695312 C 12.957031 -8.542969 13.75 -9.394531 14.429688 -10.1875 C 15.109375 -10.355469 14.824219 -9.902344 14.9375 -9.675781 C 14.203125 -8.882812 13.183594 -8.375 12.675781 -7.355469 Z M 12.675781 -7.355469 "/></g></g></g><g fill="#000000" fill-opacity="1"><g transform="translate(105.885998, 77.681462)"><g><path d="M 16.804688 0.113281 C 21.785156 0.113281 25.746094 -1.074219 28.578125 -3.226562 C 31.6875 -5.546875 33.667969 -8.09375 34.234375 -12.335938 C 34.859375 -16.691406 34.574219 -23.539062 34.460938 -28.011719 C 34.40625 -33.441406 30.5 -37.742188 25.691406 -38.027344 C 19.976562 -38.421875 14.65625 -37.855469 8.996094 -38.253906 C 8.148438 -38.308594 6.847656 -37.96875 6.167969 -37.402344 C 3.734375 -35.421875 3.394531 -33.214844 2.433594 -29.425781 C 2.261719 -28.746094 2.433594 -27.898438 2.320312 -27.046875 C 1.867188 -23.597656 1.867188 -20.203125 1.867188 -16.804688 C 1.867188 -16.128906 2.433594 -15.503906 3.167969 -15.335938 C 7.867188 -14.316406 12.054688 -14.65625 13.410156 -17.203125 C 14.429688 -19.070312 14.710938 -22.804688 15.109375 -26.878906 C 19.296875 -26.9375 21.558594 -25.011719 21.730469 -21.105469 C 21.785156 -19.070312 21.671875 -17.089844 21.671875 -15.109375 C 21.671875 -13.355469 20.878906 -12.617188 19.125 -12.675781 C 16.410156 -12.84375 13.808594 -12.617188 11.089844 -12.617188 C 8.714844 -12.617188 7.46875 -11.996094 5.886719 -10.410156 C 4.640625 -9.167969 3.90625 -8.542969 3 -7.46875 C 1.585938 -5.828125 2.039062 -4.074219 2.375 -2.039062 C 2.714844 0.113281 4.640625 0.0546875 6.054688 0.0546875 C 9.675781 0.0546875 13.355469 0.113281 16.804688 0.113281 Z M 14.316406 -34.574219 C 15.675781 -36.5 17.429688 -37.914062 18.785156 -37.292969 C 16.75 -35.308594 15.5625 -34.007812 14.316406 -34.574219 Z M 11.148438 -34.519531 C 12.394531 -35.199219 13.695312 -36.667969 14.9375 -37.402344 L 15.222656 -36.894531 C 14.035156 -36.328125 13.183594 -33.894531 11.148438 -34.519531 Z M 21.503906 -34.40625 C 21.21875 -34.519531 21.050781 -34.6875 20.878906 -34.972656 C 21.730469 -35.648438 22.464844 -36.5 23.710938 -37.007812 C 23.9375 -36.894531 24.332031 -36.726562 24.503906 -36.5 C 23.652344 -35.933594 22.125 -35.480469 21.503906 -34.40625 Z M 25.40625 -34.292969 C 26.425781 -34.6875 27.558594 -35.253906 28.464844 -35.59375 C 28.578125 -35.308594 28.632812 -35.027344 28.746094 -34.859375 C 26.992188 -33.667969 23.484375 -33.386719 25.40625 -34.292969 Z M 27.785156 -31.234375 C 27.785156 -31.746094 27.613281 -32.367188 28.40625 -33.273438 C 29.085938 -34.066406 30.445312 -34.800781 31.292969 -33.441406 C 30.160156 -33.046875 28.632812 -31.460938 27.785156 -31.234375 Z M 5.375 -1.414062 C 3.167969 -1.246094 3.453125 -2.941406 3.453125 -4.300781 C 3.453125 -5.941406 4.355469 -5.941406 5.660156 -6 C 9.054688 -6.167969 12.5625 -6.394531 15.957031 -6.675781 C 19.976562 -7.015625 22.011719 -9.394531 22.464844 -13.296875 C 22.859375 -16.46875 23.085938 -19.917969 22.464844 -23.085938 C 21.671875 -27.21875 15.5625 -29.765625 11.316406 -28.464844 C 10.582031 -28.238281 10.015625 -27.046875 9.902344 -26.199219 C 9.5625 -23.710938 9.222656 -21.105469 9.449219 -18.5625 C 9.675781 -15.84375 7.808594 -16.242188 6.167969 -16.183594 C 4.695312 -16.128906 2.886719 -15.902344 3.167969 -18.449219 C 3.28125 -19.464844 3.394531 -22.410156 3.394531 -24.445312 C 3.453125 -25.917969 3.453125 -27.332031 3.507812 -28.804688 C 3.621094 -32.425781 4.242188 -33.160156 7.921875 -33.328125 C 11.488281 -33.5 15.222656 -33.667969 18.898438 -33.5 C 25.292969 -33.214844 28.351562 -30.785156 28.578125 -24.445312 C 28.691406 -19.75 28.691406 -14.996094 28.578125 -10.242188 C 28.40625 -5.941406 25.632812 -2.488281 21.21875 -1.980469 C 16.070312 -1.414062 10.636719 -1.8125 5.375 -1.414062 Z M 29.425781 -28.917969 C 28.351562 -30.445312 28.578125 -30.726562 31.746094 -32.3125 C 32.367188 -31.066406 31.632812 -30.21875 29.425781 -28.917969 Z M 14.089844 -24.558594 C 13.921875 -24.277344 11.714844 -23.144531 10.921875 -22.523438 C 10.863281 -22.636719 10.75 -22.75 10.75 -22.972656 C 12.5625 -24.617188 14.429688 -25.125 14.089844 -24.558594 Z M 13.582031 -22.917969 C 13.523438 -22.351562 11.769531 -21.332031 10.976562 -20.710938 C 10.75 -20.9375 10.636719 -21.164062 10.523438 -21.390625 C 12.335938 -23.03125 13.636719 -23.484375 13.582031 -22.917969 Z M 30.046875 -14.316406 C 29.878906 -14.488281 29.765625 -14.542969 29.652344 -14.769531 C 29.765625 -15.902344 32.59375 -17.996094 33.328125 -18.730469 C 33.386719 -18.617188 33.554688 -18.449219 33.613281 -18.390625 C 32.992188 -17.429688 30.726562 -15.164062 30.046875 -14.316406 Z M 30.785156 -12.503906 C 30.445312 -13.976562 31.066406 -14.65625 33.273438 -16.128906 C 32.652344 -15.164062 31.460938 -13.582031 30.785156 -12.503906 Z M 31.011719 -9.902344 C 30.726562 -10.015625 30.445312 -10.074219 30.332031 -10.1875 C 31.347656 -11.261719 32.367188 -13.355469 32.820312 -14.203125 C 32.933594 -14.089844 33.160156 -14.035156 33.386719 -13.976562 C 33.441406 -12.730469 31.347656 -10.75 31.011719 -9.902344 Z M 10.355469 -7.582031 C 9.789062 -7.1875 8.769531 -6.847656 9.507812 -8.035156 C 10.75 -9.394531 11.828125 -10.242188 13.015625 -11.035156 C 13.242188 -11.316406 13.636719 -10.863281 13.808594 -10.523438 C 12.730469 -9.675781 11.429688 -8.375 10.355469 -7.582031 Z M 6.054688 -7.015625 C 5.773438 -7.074219 5.601562 -7.300781 5.714844 -7.695312 C 6.507812 -8.542969 8.035156 -9.960938 8.882812 -10.921875 C 9.054688 -10.863281 9.449219 -11.035156 9.167969 -10.1875 C 8.316406 -9.054688 7.46875 -8.09375 6.054688 -7.015625 Z M 6.054688 -7.015625 "/></g></g></g><g fill="#000000" fill-opacity="1"><g transform="translate(141.929922, 77.681462)"><g><path d="M 1.527344 0.394531 C 2.09375 0.394531 2.546875 0.453125 2.886719 0.394531 C 6.734375 0.0546875 11.089844 1.300781 13.296875 -3.28125 C 14.316406 -5.488281 14.769531 -7.921875 15.390625 -10.242188 C 16.691406 -15.449219 17.769531 -22.183594 19.011719 -27.386719 C 19.410156 -27.558594 21.445312 -27.558594 21.898438 -25.066406 C 22.578125 -21.332031 23.371094 -16.128906 23.992188 -12.335938 C 24.164062 -11.769531 24.390625 -10.242188 24.164062 -10.242188 C 20.429688 -10.242188 18.957031 -7.980469 17.597656 -6.28125 C 16.691406 -5.261719 16.976562 -2.886719 17.089844 -1.1875 C 17.257812 0.453125 18.785156 0.28125 19.636719 0.28125 C 22.917969 0.28125 26.199219 0.167969 29.3125 -0.226562 C 34.519531 -0.90625 36.214844 -3.453125 35.820312 -8.65625 C 35.761719 -10.128906 35.820312 -11.601562 35.761719 -13.128906 C 35.421875 -19.636719 35.535156 -24.671875 34.519531 -29.425781 C 33.613281 -33.726562 31.574219 -37.96875 25.917969 -38.027344 C 20.089844 -38.140625 14.316406 -38.253906 8.429688 -38.253906 C 7.980469 -38.253906 7.074219 -38.027344 6.675781 -37.800781 C 2.546875 -35.027344 1.132812 -31.972656 2.039062 -26.9375 C 2.546875 -26.425781 5.660156 -26.765625 7.242188 -26.765625 C 5.148438 -18.617188 3 -8.882812 0.792969 -0.679688 C 0.734375 -0.167969 1.074219 0.28125 1.527344 0.394531 Z M 5.660156 -34.859375 C 6.734375 -35.535156 7.753906 -36.328125 8.828125 -37.066406 C 8.996094 -36.894531 9.109375 -36.78125 9.222656 -36.613281 C 8.09375 -35.933594 7.640625 -34.40625 5.660156 -34.859375 Z M 8.996094 -34.519531 C 10.300781 -35.535156 11.148438 -36.894531 13.128906 -36.894531 C 12.167969 -35.027344 10.863281 -34.292969 8.996094 -34.519531 Z M 27.273438 -32.59375 C 28.578125 -34.574219 29.652344 -35.199219 30.953125 -34.6875 C 29.199219 -32.652344 28.464844 -32.253906 27.273438 -32.59375 Z M 19.464844 -0.847656 C 18.109375 -0.847656 18.222656 -1.8125 18.109375 -2.261719 C 17.597656 -4.921875 18.390625 -6.507812 21.730469 -6.675781 C 22.636719 -6.789062 25.238281 -6.621094 25.238281 -7.1875 C 25.691406 -11.828125 23.652344 -21.785156 22.351562 -26.597656 C 21.671875 -29.085938 18.898438 -29.085938 16.582031 -28.746094 C 14.429688 -28.519531 14.824219 -26.652344 14.542969 -25.292969 C 12.84375 -17.710938 11.148438 -8.601562 9.621094 -0.960938 L 2.488281 -0.960938 C 2.207031 -0.960938 2.09375 -1.246094 2.148438 -1.472656 C 4.074219 -8.941406 7.1875 -24.332031 8.09375 -26.992188 C 8.148438 -27.21875 7.980469 -27.558594 7.695312 -27.558594 C 6.507812 -27.558594 4.355469 -28.011719 3.113281 -28.011719 C 2.828125 -28.011719 2.714844 -28.292969 2.714844 -28.578125 C 2.714844 -29.707031 3.113281 -30.953125 3.113281 -32.027344 C 3.113281 -32.425781 3.394531 -32.652344 3.792969 -32.707031 C 10.46875 -34.121094 17.03125 -33.953125 23.710938 -32.652344 C 25.691406 -32.3125 28.238281 -30.898438 28.972656 -29.027344 C 31.574219 -22.859375 32.425781 -14.710938 31.859375 -3.792969 C 31.859375 -2.886719 30.332031 -1.472656 28.238281 -1.246094 C 25.292969 -0.960938 22.351562 -0.847656 19.464844 -0.847656 Z M 29.933594 -30.558594 L 29.425781 -31.292969 C 30.273438 -31.914062 31.121094 -32.3125 31.914062 -33.160156 L 32.480469 -32.425781 C 31.632812 -31.859375 31.179688 -30.953125 29.933594 -30.558594 Z M 30.558594 -28.691406 C 31.460938 -29.253906 32.3125 -29.878906 33.160156 -30.386719 C 33.214844 -30.160156 33.386719 -29.992188 33.441406 -29.878906 C 32.652344 -29.085938 32.085938 -28.238281 30.558594 -28.691406 Z M 12.335938 -8.65625 C 12.167969 -8.882812 12.054688 -9.109375 11.996094 -9.394531 C 12.675781 -9.734375 13.355469 -10.1875 14.089844 -10.582031 C 14.148438 -10.355469 14.824219 -10.75 14.429688 -9.902344 C 13.695312 -9.507812 12.84375 -9.507812 12.335938 -8.65625 Z M 19.75 -6.847656 C 19.636719 -6.960938 19.464844 -7.1875 19.410156 -7.414062 C 20.257812 -7.980469 21.671875 -8.769531 22.578125 -9.394531 C 22.691406 -9.222656 22.351562 -8.882812 22.523438 -8.769531 C 21.617188 -8.09375 20.429688 -7.582031 19.75 -6.847656 Z M 11.429688 -6.847656 C 12.449219 -7.640625 13.128906 -8.65625 14.542969 -8.429688 C 13.695312 -7.582031 13.296875 -6.222656 11.429688 -6.847656 Z M 11.429688 -6.847656 "/></g></g></g><g fill="#000000" fill-opacity="1"><g transform="translate(180.180613, 77.681462)"><g><path d="M 14.710938 -0.566406 C 17.542969 -0.621094 21.898438 -0.453125 24.164062 -1.246094 C 25.691406 -1.8125 27.613281 -4.132812 27.671875 -5.714844 C 28.066406 -13.015625 27.273438 -20.371094 27.785156 -27.726562 C 28.066406 -33.046875 23.3125 -37.402344 17.9375 -37.402344 C 14.148438 -37.402344 10.355469 -37.292969 6.5625 -37.007812 C 5.375 -36.894531 4.074219 -36.5 3.113281 -35.707031 C 0.847656 -34.007812 0.167969 -31.6875 0.226562 -28.972656 C 0.226562 -26.710938 1.1875 -26.257812 3.167969 -26.3125 C 5.488281 -26.371094 7.980469 -26.371094 10.1875 -25.917969 C 11.429688 -25.746094 13.015625 -24.671875 13.355469 -23.652344 C 14.148438 -20.765625 14.769531 -17.65625 14.769531 -14.65625 C 14.769531 -10.808594 13.976562 -7.015625 13.582031 -3.28125 C 13.46875 -2.773438 13.695312 -1.585938 13.75 -0.960938 C 13.75 -0.847656 13.976562 -0.679688 14.148438 -0.621094 C 14.316406 -0.566406 14.542969 -0.566406 14.710938 -0.566406 Z M 3.792969 -33.273438 C 3.566406 -33.441406 2.828125 -33.160156 3.339844 -33.839844 C 4.1875 -34.574219 4.46875 -35.535156 5.886719 -36.101562 C 6.054688 -35.933594 6.113281 -35.820312 6.222656 -35.707031 C 4.355469 -34.859375 4.582031 -34.007812 3.792969 -33.273438 Z M 17.089844 -33.046875 C 17.03125 -33.214844 16.917969 -33.328125 16.804688 -33.5 C 17.710938 -34.121094 18.050781 -34.800781 19.636719 -35.480469 C 19.691406 -35.308594 19.75 -35.253906 19.863281 -35.140625 C 18.957031 -34.460938 18.335938 -34.179688 17.089844 -33.046875 Z M 19.070312 -32.765625 C 18.957031 -32.992188 18.898438 -33.160156 18.730469 -33.273438 C 19.636719 -33.953125 20.597656 -34.632812 21.558594 -35.253906 C 21.671875 -35.140625 22.238281 -35.308594 21.957031 -34.632812 Z M 21.050781 -32.253906 C 20.371094 -32.140625 20.765625 -32.59375 20.65625 -32.765625 C 21.898438 -33.214844 22.410156 -34.007812 23.3125 -34.632812 C 23.371094 -34.519531 23.597656 -34.347656 23.652344 -34.121094 C 22.859375 -33.5 21.898438 -32.933594 21.050781 -32.253906 Z M 23.199219 -30.671875 C 22.859375 -31.179688 22.296875 -31.800781 22.351562 -31.859375 C 22.917969 -32.480469 23.539062 -32.933594 24.21875 -33.5 C 25.292969 -31.859375 23.878906 -31.632812 23.199219 -30.671875 Z M 15.390625 -1.472656 C 15.050781 -1.472656 14.769531 -1.640625 14.824219 -1.980469 C 15.222656 -7.300781 15.675781 -13.070312 15.789062 -18.390625 C 15.902344 -20.371094 14.996094 -22.464844 14.375 -24.558594 C 13.75 -26.3125 12.449219 -27.273438 10.636719 -27.273438 C 7.867188 -27.332031 5.148438 -27.332031 2.433594 -27.386719 C 2.148438 -27.386719 1.925781 -27.613281 1.867188 -27.898438 C 1.246094 -31.574219 1.585938 -32.367188 4.132812 -32.480469 C 8.148438 -32.59375 12.28125 -32.59375 16.296875 -32.253906 C 19.410156 -31.972656 21.671875 -28.804688 21.445312 -25.632812 C 21.445312 -24.617188 21.332031 -23.710938 21.332031 -22.691406 C 21.445312 -17.144531 21.730469 -11.65625 21.730469 -6.054688 C 21.730469 -2.09375 21.617188 -1.980469 17.597656 -1.585938 C 17.257812 -1.585938 16.296875 -1.527344 15.390625 -1.472656 Z M 23.652344 -29.480469 C 24.164062 -30.046875 24.503906 -30.785156 24.953125 -31.574219 C 25.691406 -30.160156 25.691406 -30.160156 23.652344 -29.480469 Z M 23.371094 -8.429688 C 22.691406 -8.148438 22.410156 -8.375 22.636719 -9.109375 C 23.710938 -10.410156 24.503906 -12.222656 25.804688 -13.128906 C 25.972656 -13.015625 26.484375 -13.695312 26.484375 -12.730469 C 25.351562 -11.261719 24.390625 -10.410156 23.371094 -8.429688 Z M 23.824219 -5.320312 C 23.3125 -4.867188 23.257812 -5.714844 22.972656 -5.886719 C 24.21875 -7.074219 24.953125 -8.769531 25.859375 -10.1875 C 26.199219 -10.074219 26.484375 -10.410156 26.652344 -9.734375 C 25.691406 -8.769531 25.632812 -6.5625 23.824219 -5.320312 Z M 23.824219 -5.320312 "/></g></g></g><g fill="#000000" fill-opacity="1"><g transform="translate(211.245147, 77.681462)"><g><path d="M 36.386719 -34.859375 C 36.386719 -35.480469 35.480469 -36.441406 34.972656 -36.441406 C 29.820312 -36.441406 23.371094 -38.480469 19.183594 -33.613281 C 17.710938 -31.859375 17.429688 -28.972656 17.882812 -26.652344 C 18.503906 -24.277344 19.183594 -24.21875 22.183594 -23.878906 C 22.636719 -23.765625 23.085938 -23.765625 24.164062 -23.652344 C 24.332031 -19.464844 24.503906 -16.976562 24.617188 -12.84375 C 24.671875 -10.1875 22.804688 -10.1875 20.878906 -10.128906 C 18.730469 -10.015625 18.222656 -11.261719 18.050781 -13.015625 C 17.371094 -18.5625 16.523438 -24.050781 15.84375 -29.652344 C 14.824219 -37.914062 13.976562 -36.5 6.960938 -36.214844 C 6.847656 -36.214844 6.621094 -36.214844 6.507812 -36.160156 C 3.566406 -35.480469 1.074219 -32.3125 1.867188 -29.707031 C 4.355469 -21.730469 4.355469 -10.355469 4.640625 -2.09375 C 4.695312 -0.621094 5.601562 0.566406 7.355469 0.847656 C 13.128906 2.148438 21.164062 2.261719 26.9375 -0.453125 C 31.800781 -2.660156 33.328125 -5.714844 34.972656 -10.808594 C 37.292969 -18.730469 36.386719 -26.878906 36.386719 -34.859375 Z M 27.160156 -36.160156 C 27.332031 -35.988281 27.898438 -36.328125 27.613281 -35.648438 C 26.199219 -34.632812 23.652344 -33.613281 22.238281 -32.480469 L 21.785156 -33.160156 C 21.164062 -33.78125 25.917969 -35.199219 27.160156 -36.160156 Z M 30.046875 -35.648438 C 28.691406 -34.632812 28.125 -33.839844 25.125 -32.367188 C 25.011719 -32.539062 24.953125 -32.652344 24.730469 -32.933594 C 25.40625 -34.632812 28.40625 -35.253906 29.765625 -36.160156 C 29.933594 -35.988281 29.992188 -35.875 30.046875 -35.648438 Z M 35.085938 -35.308594 C 33.726562 -34.460938 33.105469 -33.046875 31.066406 -32.253906 C 30.953125 -32.480469 30.726562 -32.59375 30.613281 -32.820312 C 31.972656 -33.78125 33.273438 -35.140625 34.632812 -35.988281 Z M 32.539062 -35.648438 C 31.121094 -34.574219 29.765625 -33.160156 28.40625 -32.253906 C 28.292969 -32.480469 28.066406 -32.652344 27.953125 -32.933594 C 29.367188 -33.78125 30.046875 -35.648438 32.3125 -35.933594 Z M 7.753906 -35.535156 L 8.035156 -35.140625 C 6.621094 -34.007812 6.222656 -33.214844 3.90625 -31.800781 C 3.679688 -31.914062 3.621094 -32.140625 3.507812 -32.3125 C 4.867188 -33.214844 5.148438 -34.800781 7.753906 -35.535156 Z M 12.730469 -35.199219 L 12.957031 -34.800781 C 12.109375 -34.121094 11.601562 -32.3125 9.789062 -32.027344 C 9.734375 -32.253906 9.621094 -32.3125 9.5625 -32.480469 C 10.808594 -33.328125 11.828125 -34.519531 12.730469 -35.199219 Z M 14.488281 -32.820312 C 13.46875 -31.800781 12.503906 -30.273438 10.75 -29.480469 L 10.1875 -30.160156 C 9.28125 -30.613281 12.222656 -31.800781 14.148438 -33.214844 Z M 32.367188 -12.167969 C 32.3125 -6.167969 30.953125 -2.773438 25.066406 -0.621094 C 20.992188 0.960938 14.488281 1.074219 10.242188 0.507812 C 9.28125 0.394531 6.5625 -0.566406 6 -1.472656 C 5.261719 -11.148438 5.828125 -21.105469 2.433594 -30.898438 L 8.601562 -30.898438 C 9.335938 -25.972656 10.1875 -21.050781 10.976562 -16.128906 C 11.601562 -12.84375 11.996094 -9.507812 12.789062 -6.28125 C 12.902344 -5.601562 14.261719 -4.640625 14.882812 -4.753906 C 23.371094 -5.941406 26.199219 -8.207031 25.917969 -16.410156 C 25.804688 -18.5625 25.519531 -20.765625 25.292969 -22.917969 C 25.125 -25.691406 24.050781 -25.351562 21.105469 -24.953125 C 19.75 -24.671875 19.011719 -25.179688 18.5625 -28.292969 C 18.449219 -30.332031 18.785156 -31.460938 21.164062 -31.347656 C 23.824219 -31.234375 27.332031 -31.234375 29.933594 -31.347656 C 31.574219 -31.347656 32.367188 -30.953125 32.367188 -29.199219 C 32.367188 -23.597656 32.425781 -17.769531 32.367188 -12.167969 Z M 33.894531 -24.445312 C 33.386719 -26.199219 33.386719 -26.199219 35.875 -27.839844 Z M 34.007812 -22.296875 C 33.894531 -22.410156 33.667969 -22.464844 33.5 -22.636719 L 35.253906 -24.898438 C 35.367188 -24.671875 35.648438 -24.617188 35.761719 -24.445312 Z M 34.179688 -13.808594 L 33.726562 -14.089844 C 33.726562 -15.335938 34.519531 -15.503906 34.746094 -16.582031 L 35.535156 -16.804688 C 34.859375 -16.070312 34.6875 -14.824219 34.179688 -13.808594 Z M 16.523438 -11.542969 C 16.582031 -11.429688 16.75 -11.261719 16.75 -11.148438 C 15.503906 -9.789062 14.542969 -9.675781 13.183594 -8.996094 L 12.957031 -9.394531 C 15.109375 -10.355469 15.5625 -11.035156 16.523438 -11.542969 Z M 18.785156 -9.789062 C 17.882812 -8.375 16.070312 -8.148438 14.65625 -6.734375 L 14.261719 -7.300781 C 15.390625 -8.714844 16.582031 -9.109375 18.050781 -10.074219 C 18.164062 -9.789062 18.5625 -10.074219 18.785156 -9.789062 Z M 18.785156 -9.789062 "/></g></g></g></svg>