<svg xmlns="http://www.w3.org/2000/svg" xmlns:xlink="http://www.w3.org/1999/xlink" width="355" zoomAndPan="magnify" viewBox="0 0 266.25 123.749996" height="165" preserveAspectRatio="xMidYMid meet" version="1.0"><defs><g/></defs><g fill="#000000" fill-opacity="1"><g transform="translate(17.466994, 77.494229)"><g><path d="M 24.84375 -27.898438 C 24.84375 -29.316406 24.449219 -30.785156 24.449219 -32.371094 C 24.449219 -32.429688 24.335938 -32.542969 24.222656 -32.597656 C 23.824219 -32.652344 22.46875 -33.445312 22.015625 -33.445312 C 20.542969 -32.765625 19.582031 -31.976562 18.28125 -31.691406 C 17.203125 -31.410156 14.882812 -29.9375 13.976562 -29.484375 C 12.167969 -28.578125 6.621094 -25.917969 5.886719 -25.578125 C 4.132812 -24.675781 2.714844 -23.882812 2.09375 -22.128906 C 1.640625 -19.242188 1.359375 -16.1875 2.09375 -15.449219 C 2.488281 -14.714844 3 -14.65625 3.90625 -14.148438 C 5.320312 -13.355469 6.621094 -12.335938 8.09375 -11.65625 C 10.46875 -10.582031 12.621094 -9.113281 14.542969 -7.582031 C 15.789062 -6.679688 17.203125 -5.941406 18.449219 -5.207031 C 18.84375 -4.921875 23.542969 -8.546875 24.222656 -8.828125 C 24.050781 -10.867188 24.390625 -12.847656 24.050781 -14.996094 C 22.46875 -15.734375 19.808594 -16.75 18.394531 -17.488281 C 16.863281 -18.28125 13.640625 -20.375 11.996094 -21.050781 C 14.65625 -22.636719 17.65625 -23.769531 20.769531 -24.902344 C 21.109375 -25.242188 24.84375 -27.335938 24.84375 -27.898438 Z M 20.375 -29.65625 C 21.164062 -30.503906 22.015625 -31.238281 22.863281 -32.03125 C 23.371094 -31.804688 23.089844 -31.917969 23.597656 -31.578125 C 22.582031 -30.671875 21.789062 -29.9375 20.882812 -29.203125 C 20.429688 -29.484375 20.828125 -29.316406 20.375 -29.65625 Z M 20.203125 -25.636719 C 17.769531 -24.902344 15.734375 -23.710938 13.582031 -22.808594 C 11.261719 -21.789062 9.226562 -20.261719 6.90625 -19.070312 C 6.621094 -18.957031 6.339844 -18.730469 6.167969 -18.449219 C 6.054688 -18.394531 6 -17.429688 6.28125 -17.375 C 8.035156 -16.921875 10.582031 -15.335938 12.054688 -14.65625 C 13.867188 -13.753906 15.789062 -12.960938 17.542969 -12.167969 C 18.222656 -11.828125 18.902344 -11.375 19.523438 -10.980469 C 19.808594 -9.394531 19.523438 -7.921875 19.128906 -6.394531 C 19.070312 -6.113281 18.84375 -6.113281 18.5625 -6.113281 C 18.507812 -6.113281 18.5625 -6.054688 18.507812 -6.113281 C 17.601562 -7.015625 16.242188 -7.355469 15.167969 -8.09375 C 13.355469 -9.394531 11.433594 -10.640625 9.507812 -11.769531 C 7.414062 -12.960938 5.375 -14.148438 3.394531 -15.449219 C 3.226562 -15.621094 3 -15.789062 3 -16.128906 C 3 -17.429688 2.660156 -19.070312 3 -20.261719 C 3.113281 -20.429688 3.28125 -20.65625 3.453125 -20.828125 C 6 -22.46875 8.660156 -23.882812 11.261719 -25.410156 C 14.488281 -27.449219 17.769531 -28.976562 19.410156 -29.710938 C 19.636719 -29.882812 19.863281 -29.65625 19.921875 -29.316406 C 20.148438 -28.75 19.976562 -28.238281 20.148438 -27.675781 C 20.261719 -26.769531 20.375 -26.257812 20.203125 -25.636719 Z M 23.769531 -29.316406 C 23.769531 -29.316406 23.824219 -29.316406 23.769531 -29.257812 C 23.089844 -28.578125 22.523438 -27.898438 21.730469 -27.164062 C 21.503906 -27.277344 21.222656 -27.390625 20.9375 -27.675781 C 21.789062 -28.410156 22.582031 -28.636719 23.484375 -29.484375 C 23.542969 -29.597656 23.710938 -29.371094 23.769531 -29.316406 Z M 11.941406 -19.695312 L 12.902344 -19.296875 C 12.054688 -18.394531 11.261719 -17.769531 10.242188 -17.261719 L 9.789062 -17.65625 C 10.355469 -18.5625 11.035156 -19.128906 11.941406 -19.695312 Z M 19.46875 -16.1875 C 19.75 -16.015625 19.921875 -15.734375 20.375 -15.621094 L 18.167969 -13.414062 C 17.429688 -13.414062 16.921875 -13.46875 16.582031 -14.089844 C 17.429688 -14.996094 18.222656 -15.675781 19.46875 -16.1875 Z M 21.789062 -14.769531 C 21.050781 -14.148438 20.828125 -14.148438 20.148438 -13.695312 C 19.808594 -13.46875 19.242188 -12.675781 19.242188 -12.222656 L 18.5625 -12.734375 C 19.46875 -13.640625 20.261719 -14.375 21.222656 -15.109375 C 21.5625 -14.996094 21.449219 -14.996094 21.789062 -14.769531 Z M 21.789062 -14.769531 "/></g></g></g><g fill="#000000" fill-opacity="1"><g transform="translate(44.343791, 77.494229)"><g><path d="M 24.84375 -27.898438 C 24.84375 -29.316406 24.449219 -30.785156 24.449219 -32.371094 C 24.449219 -32.429688 24.335938 -32.542969 24.222656 -32.597656 C 23.824219 -32.652344 22.46875 -33.445312 22.015625 -33.445312 C 20.542969 -32.765625 19.582031 -31.976562 18.28125 -31.691406 C 17.203125 -31.410156 14.882812 -29.9375 13.976562 -29.484375 C 12.167969 -28.578125 6.621094 -25.917969 5.886719 -25.578125 C 4.132812 -24.675781 2.714844 -23.882812 2.09375 -22.128906 C 1.640625 -19.242188 1.359375 -16.1875 2.09375 -15.449219 C 2.488281 -14.714844 3 -14.65625 3.90625 -14.148438 C 5.320312 -13.355469 6.621094 -12.335938 8.09375 -11.65625 C 10.46875 -10.582031 12.621094 -9.113281 14.542969 -7.582031 C 15.789062 -6.679688 17.203125 -5.941406 18.449219 -5.207031 C 18.84375 -4.921875 23.542969 -8.546875 24.222656 -8.828125 C 24.050781 -10.867188 24.390625 -12.847656 24.050781 -14.996094 C 22.46875 -15.734375 19.808594 -16.75 18.394531 -17.488281 C 16.863281 -18.28125 13.640625 -20.375 11.996094 -21.050781 C 14.65625 -22.636719 17.65625 -23.769531 20.769531 -24.902344 C 21.109375 -25.242188 24.84375 -27.335938 24.84375 -27.898438 Z M 20.375 -29.65625 C 21.164062 -30.503906 22.015625 -31.238281 22.863281 -32.03125 C 23.371094 -31.804688 23.089844 -31.917969 23.597656 -31.578125 C 22.582031 -30.671875 21.789062 -29.9375 20.882812 -29.203125 C 20.429688 -29.484375 20.828125 -29.316406 20.375 -29.65625 Z M 20.203125 -25.636719 C 17.769531 -24.902344 15.734375 -23.710938 13.582031 -22.808594 C 11.261719 -21.789062 9.226562 -20.261719 6.90625 -19.070312 C 6.621094 -18.957031 6.339844 -18.730469 6.167969 -18.449219 C 6.054688 -18.394531 6 -17.429688 6.28125 -17.375 C 8.035156 -16.921875 10.582031 -15.335938 12.054688 -14.65625 C 13.867188 -13.753906 15.789062 -12.960938 17.542969 -12.167969 C 18.222656 -11.828125 18.902344 -11.375 19.523438 -10.980469 C 19.808594 -9.394531 19.523438 -7.921875 19.128906 -6.394531 C 19.070312 -6.113281 18.84375 -6.113281 18.5625 -6.113281 C 18.507812 -6.113281 18.5625 -6.054688 18.507812 -6.113281 C 17.601562 -7.015625 16.242188 -7.355469 15.167969 -8.09375 C 13.355469 -9.394531 11.433594 -10.640625 9.507812 -11.769531 C 7.414062 -12.960938 5.375 -14.148438 3.394531 -15.449219 C 3.226562 -15.621094 3 -15.789062 3 -16.128906 C 3 -17.429688 2.660156 -19.070312 3 -20.261719 C 3.113281 -20.429688 3.28125 -20.65625 3.453125 -20.828125 C 6 -22.46875 8.660156 -23.882812 11.261719 -25.410156 C 14.488281 -27.449219 17.769531 -28.976562 19.410156 -29.710938 C 19.636719 -29.882812 19.863281 -29.65625 19.921875 -29.316406 C 20.148438 -28.75 19.976562 -28.238281 20.148438 -27.675781 C 20.261719 -26.769531 20.375 -26.257812 20.203125 -25.636719 Z M 23.769531 -29.316406 C 23.769531 -29.316406 23.824219 -29.316406 23.769531 -29.257812 C 23.089844 -28.578125 22.523438 -27.898438 21.730469 -27.164062 C 21.503906 -27.277344 21.222656 -27.390625 20.9375 -27.675781 C 21.789062 -28.410156 22.582031 -28.636719 23.484375 -29.484375 C 23.542969 -29.597656 23.710938 -29.371094 23.769531 -29.316406 Z M 11.941406 -19.695312 L 12.902344 -19.296875 C 12.054688 -18.394531 11.261719 -17.769531 10.242188 -17.261719 L 9.789062 -17.65625 C 10.355469 -18.5625 11.035156 -19.128906 11.941406 -19.695312 Z M 19.46875 -16.1875 C 19.75 -16.015625 19.921875 -15.734375 20.375 -15.621094 L 18.167969 -13.414062 C 17.429688 -13.414062 16.921875 -13.46875 16.582031 -14.089844 C 17.429688 -14.996094 18.222656 -15.675781 19.46875 -16.1875 Z M 21.789062 -14.769531 C 21.050781 -14.148438 20.828125 -14.148438 20.148438 -13.695312 C 19.808594 -13.46875 19.242188 -12.675781 19.242188 -12.222656 L 18.5625 -12.734375 C 19.46875 -13.640625 20.261719 -14.375 21.222656 -15.109375 C 21.5625 -14.996094 21.449219 -14.996094 21.789062 -14.769531 Z M 21.789062 -14.769531 "/></g></g></g><g fill="#000000" fill-opacity="1"><g transform="translate(71.22182, 77.494229)"><g><path d="M 5.035156 0.960938 C 7.867188 1.925781 15.335938 0.0546875 18.28125 -0.0546875 C 24.84375 -0.394531 29.429688 -4.808594 32.652344 -9.5625 C 37.351562 -16.46875 35.371094 -25.804688 35.652344 -34.011719 C 35.710938 -37.125 34.464844 -37.972656 31.351562 -37.746094 C 28.976562 -37.578125 26.429688 -37.183594 24.730469 -37.125 C 19.128906 -36.898438 13.46875 -37.011719 7.695312 -36.730469 C 5.886719 -36.671875 1.132812 -32.765625 1.132812 -31.125 C 1.132812 -27.898438 1.359375 -24.902344 1.585938 -21.84375 C 1.925781 -18.167969 2.320312 -14.375 2.886719 -10.867188 C 3.394531 -7.355469 4.695312 -2.828125 4.695312 0.621094 C 4.695312 0.90625 4.867188 0.90625 5.035156 0.960938 Z M 31.351562 -34.011719 C 31.125 -34.183594 30.445312 -34.011719 30.730469 -34.691406 C 31.691406 -35.3125 32.710938 -35.765625 33.21875 -36.671875 C 33.332031 -36.445312 34.011719 -36.445312 33.785156 -35.992188 C 32.992188 -35.3125 32.371094 -34.523438 31.351562 -34.011719 Z M 7.980469 -33.671875 C 9.226562 -35.652344 10.300781 -36.332031 11.546875 -35.9375 C 9.902344 -33.730469 9.226562 -33.21875 7.980469 -33.671875 Z M 10.414062 -33.503906 C 11.65625 -34.636719 12.621094 -36.105469 14.542969 -36.105469 C 13.527344 -34.125 12.335938 -33.390625 10.414062 -33.503906 Z M 14.488281 -33.21875 C 14.261719 -33.445312 13.808594 -33.445312 13.867188 -33.957031 C 14.828125 -34.523438 15.621094 -35.03125 16.296875 -35.9375 C 16.863281 -35.9375 16.808594 -35.425781 16.921875 -35.199219 C 16.1875 -34.464844 15.054688 -34.125 14.488281 -33.21875 Z M 4.695312 -33.390625 C 5.886719 -34.125 6.847656 -34.972656 7.921875 -35.765625 C 8.035156 -35.484375 8.207031 -35.371094 8.261719 -35.199219 C 7.1875 -34.523438 6.734375 -32.992188 4.695312 -33.390625 Z M 16.808594 -34.070312 C 17.714844 -34.636719 18.449219 -35.199219 19.410156 -35.765625 C 19.46875 -35.484375 19.523438 -35.371094 19.695312 -35.199219 C 19.015625 -34.523438 18.394531 -33.503906 16.808594 -34.070312 Z M 30.617188 -29.882812 C 30.332031 -29.882812 30.332031 -30.164062 30.277344 -30.390625 C 31.464844 -31.183594 32.992188 -31.976562 34.011719 -33.050781 C 34.691406 -33.050781 34.464844 -32.484375 34.636719 -32.316406 C 33.277344 -31.464844 32.089844 -30.390625 30.617188 -29.882812 Z M 6.226562 0 C 5.660156 0 5.207031 -0.394531 5.207031 -0.90625 C 5.207031 -10.414062 2.039062 -20.828125 2.039062 -30.671875 C 2.039062 -31.011719 2.320312 -31.296875 2.714844 -31.296875 C 3.621094 -31.296875 4.359375 -31.410156 5.261719 -31.351562 C 11.488281 -30.785156 17.601562 -31.691406 23.769531 -31.691406 C 25.015625 -31.691406 26.371094 -31.863281 27.675781 -31.863281 C 29.144531 -31.863281 29.484375 -31.070312 29.484375 -29.824219 C 29.484375 -23.769531 31.070312 -16.976562 29.144531 -11.035156 C 26.710938 -3.566406 24.84375 -1.8125 16.921875 -0.90625 C 14.203125 -0.621094 10.242188 0 6.226562 0 Z M 30.390625 -27.898438 C 30.332031 -28.070312 30.109375 -28.238281 30.050781 -28.351562 C 32.03125 -29.089844 32.9375 -30.164062 34.351562 -31.183594 C 34.578125 -31.011719 34.691406 -30.730469 34.863281 -30.503906 C 33.390625 -29.597656 33.21875 -28.351562 30.390625 -27.898438 Z M 11.769531 -5.261719 C 16.46875 -3.339844 23.371094 -7.414062 23.710938 -12.28125 C 23.882812 -15.675781 23.824219 -19.128906 23.371094 -22.410156 C 22.695312 -27.449219 22.523438 -27.390625 17.261719 -27.390625 C 16.75 -27.390625 16.128906 -27.390625 15.507812 -27.335938 L 15.507812 -27.222656 C 13.582031 -27.164062 11.769531 -27.5625 9.902344 -27.109375 C 8.601562 -26.769531 7.582031 -26.089844 8.546875 -24.449219 C 8.886719 -23.769531 8.828125 -22.976562 8.886719 -22.296875 C 9.449219 -17.542969 10.015625 -12.675781 10.414062 -7.753906 C 10.46875 -6.90625 10.980469 -5.546875 11.769531 -5.261719 Z M 20.542969 -10.980469 C 19.070312 -11.148438 16.863281 -9.675781 16.296875 -12.621094 C 15.507812 -16.976562 14.941406 -21.617188 14.429688 -25.863281 C 14.769531 -26.257812 14.769531 -26.257812 14.828125 -26.257812 C 21.335938 -26.257812 22.128906 -26.597656 22.695312 -20.429688 C 22.921875 -17.941406 22.695312 -15.621094 22.863281 -13.1875 C 22.921875 -11.65625 22.128906 -10.867188 20.542969 -10.980469 Z M 12.28125 -10.980469 C 11.828125 -10.867188 11.996094 -11.320312 11.828125 -11.375 C 12.621094 -12.222656 12.621094 -13.527344 14.089844 -13.808594 C 14.203125 -13.695312 14.316406 -13.582031 14.542969 -13.414062 C 13.355469 -12.335938 13.074219 -11.714844 12.28125 -10.980469 Z M 31.351562 -10.1875 C 31.070312 -11.433594 31.070312 -11.433594 32.9375 -12.847656 C 32.371094 -11.996094 31.976562 -11.148438 31.351562 -10.1875 Z M 12.675781 -7.355469 C 12.621094 -7.527344 12.167969 -7.242188 12.222656 -7.695312 C 12.960938 -8.546875 13.753906 -9.394531 14.429688 -10.1875 C 15.109375 -10.355469 14.828125 -9.902344 14.941406 -9.675781 C 14.203125 -8.886719 13.1875 -8.375 12.675781 -7.355469 Z M 12.675781 -7.355469 "/></g></g></g><g fill="#000000" fill-opacity="1"><g transform="translate(109.019095, 77.494229)"><g><path d="M 16.808594 0.113281 C 21.789062 0.113281 25.75 -1.074219 28.578125 -3.226562 C 31.691406 -5.546875 33.671875 -8.09375 34.238281 -12.335938 C 34.863281 -16.695312 34.578125 -23.542969 34.464844 -28.011719 C 34.410156 -33.445312 30.503906 -37.746094 25.691406 -38.03125 C 19.976562 -38.425781 14.65625 -37.859375 9 -38.257812 C 8.148438 -38.3125 6.847656 -37.972656 6.167969 -37.40625 C 3.734375 -35.425781 3.394531 -33.21875 2.433594 -29.429688 C 2.265625 -28.75 2.433594 -27.898438 2.320312 -27.050781 C 1.867188 -23.597656 1.867188 -20.203125 1.867188 -16.808594 C 1.867188 -16.128906 2.433594 -15.507812 3.167969 -15.335938 C 7.867188 -14.316406 12.054688 -14.65625 13.414062 -17.203125 C 14.429688 -19.070312 14.714844 -22.808594 15.109375 -26.882812 C 19.296875 -26.9375 21.5625 -25.015625 21.730469 -21.109375 C 21.789062 -19.070312 21.675781 -17.089844 21.675781 -15.109375 C 21.675781 -13.355469 20.882812 -12.621094 19.128906 -12.675781 C 16.410156 -12.847656 13.808594 -12.621094 11.09375 -12.621094 C 8.714844 -12.621094 7.46875 -11.996094 5.886719 -10.414062 C 4.640625 -9.167969 3.90625 -8.546875 3 -7.46875 C 1.585938 -5.828125 2.039062 -4.074219 2.375 -2.039062 C 2.714844 0.113281 4.640625 0.0546875 6.054688 0.0546875 C 9.675781 0.0546875 13.355469 0.113281 16.808594 0.113281 Z M 14.316406 -34.578125 C 15.675781 -36.503906 17.429688 -37.917969 18.789062 -37.292969 C 16.75 -35.3125 15.5625 -34.011719 14.316406 -34.578125 Z M 11.148438 -34.523438 C 12.394531 -35.199219 13.695312 -36.671875 14.941406 -37.40625 L 15.222656 -36.898438 C 14.035156 -36.332031 13.1875 -33.898438 11.148438 -34.523438 Z M 21.503906 -34.410156 C 21.222656 -34.523438 21.050781 -34.691406 20.882812 -34.972656 C 21.730469 -35.652344 22.46875 -36.503906 23.710938 -37.011719 C 23.9375 -36.898438 24.335938 -36.730469 24.503906 -36.503906 C 23.65625 -35.9375 22.128906 -35.484375 21.503906 -34.410156 Z M 25.410156 -34.296875 C 26.429688 -34.691406 27.5625 -35.257812 28.464844 -35.597656 C 28.578125 -35.3125 28.636719 -35.03125 28.75 -34.863281 C 26.996094 -33.671875 23.484375 -33.390625 25.410156 -34.296875 Z M 27.789062 -31.238281 C 27.789062 -31.75 27.617188 -32.371094 28.410156 -33.277344 C 29.089844 -34.070312 30.445312 -34.804688 31.296875 -33.445312 C 30.164062 -33.050781 28.636719 -31.464844 27.789062 -31.238281 Z M 5.375 -1.414062 C 3.167969 -1.246094 3.453125 -2.941406 3.453125 -4.300781 C 3.453125 -5.941406 4.359375 -5.941406 5.660156 -6 C 9.054688 -6.167969 12.5625 -6.394531 15.960938 -6.679688 C 19.976562 -7.015625 22.015625 -9.394531 22.46875 -13.300781 C 22.863281 -16.46875 23.089844 -19.921875 22.46875 -23.089844 C 21.675781 -27.222656 15.5625 -29.769531 11.320312 -28.464844 C 10.582031 -28.238281 10.015625 -27.050781 9.902344 -26.203125 C 9.5625 -23.710938 9.226562 -21.109375 9.449219 -18.5625 C 9.675781 -15.847656 7.808594 -16.242188 6.167969 -16.1875 C 4.695312 -16.128906 2.886719 -15.902344 3.167969 -18.449219 C 3.28125 -19.46875 3.394531 -22.410156 3.394531 -24.449219 C 3.453125 -25.917969 3.453125 -27.335938 3.507812 -28.804688 C 3.621094 -32.429688 4.246094 -33.164062 7.921875 -33.332031 C 11.488281 -33.503906 15.222656 -33.671875 18.902344 -33.503906 C 25.296875 -33.21875 28.351562 -30.785156 28.578125 -24.449219 C 28.691406 -19.75 28.691406 -14.996094 28.578125 -10.242188 C 28.410156 -5.941406 25.636719 -2.488281 21.222656 -1.980469 C 16.074219 -1.414062 10.640625 -1.8125 5.375 -1.414062 Z M 29.429688 -28.917969 C 28.351562 -30.445312 28.578125 -30.730469 31.75 -32.316406 C 32.371094 -31.070312 31.636719 -30.222656 29.429688 -28.917969 Z M 14.089844 -24.5625 C 13.921875 -24.277344 11.714844 -23.148438 10.921875 -22.523438 C 10.867188 -22.636719 10.753906 -22.75 10.753906 -22.976562 C 12.5625 -24.617188 14.429688 -25.128906 14.089844 -24.5625 Z M 13.582031 -22.921875 C 13.527344 -22.355469 11.769531 -21.335938 10.980469 -20.714844 C 10.753906 -20.9375 10.640625 -21.164062 10.527344 -21.390625 C 12.335938 -23.035156 13.640625 -23.484375 13.582031 -22.921875 Z M 30.050781 -14.316406 C 29.882812 -14.488281 29.769531 -14.542969 29.65625 -14.769531 C 29.769531 -15.902344 32.597656 -17.996094 33.332031 -18.730469 C 33.390625 -18.617188 33.558594 -18.449219 33.617188 -18.394531 C 32.992188 -17.429688 30.730469 -15.167969 30.050781 -14.316406 Z M 30.785156 -12.507812 C 30.445312 -13.976562 31.070312 -14.65625 33.277344 -16.128906 C 32.652344 -15.167969 31.464844 -13.582031 30.785156 -12.507812 Z M 31.011719 -9.902344 C 30.730469 -10.015625 30.445312 -10.074219 30.332031 -10.1875 C 31.351562 -11.261719 32.371094 -13.355469 32.824219 -14.203125 C 32.9375 -14.089844 33.164062 -14.035156 33.390625 -13.976562 C 33.445312 -12.734375 31.351562 -10.753906 31.011719 -9.902344 Z M 10.355469 -7.582031 C 9.789062 -7.1875 8.773438 -6.847656 9.507812 -8.035156 C 10.753906 -9.394531 11.828125 -10.242188 13.015625 -11.035156 C 13.242188 -11.320312 13.640625 -10.867188 13.808594 -10.527344 C 12.734375 -9.675781 11.433594 -8.375 10.355469 -7.582031 Z M 6.054688 -7.015625 C 5.773438 -7.074219 5.601562 -7.300781 5.714844 -7.695312 C 6.507812 -8.546875 8.035156 -9.960938 8.886719 -10.921875 C 9.054688 -10.867188 9.449219 -11.035156 9.167969 -10.1875 C 8.320312 -9.054688 7.46875 -8.09375 6.054688 -7.015625 Z M 6.054688 -7.015625 "/></g></g></g><g fill="#000000" fill-opacity="1"><g transform="translate(145.062296, 77.494229)"><g><path d="M 1.527344 0.394531 C 2.09375 0.394531 2.546875 0.453125 2.886719 0.394531 C 6.734375 0.0546875 11.09375 1.300781 13.300781 -3.28125 C 14.316406 -5.488281 14.769531 -7.921875 15.394531 -10.242188 C 16.695312 -15.449219 17.769531 -22.183594 19.015625 -27.390625 C 19.410156 -27.5625 21.449219 -27.5625 21.902344 -25.070312 C 22.582031 -21.335938 23.371094 -16.128906 23.996094 -12.335938 C 24.164062 -11.769531 24.390625 -10.242188 24.164062 -10.242188 C 20.429688 -10.242188 18.957031 -7.980469 17.601562 -6.28125 C 16.695312 -5.261719 16.976562 -2.886719 17.089844 -1.1875 C 17.261719 0.453125 18.789062 0.28125 19.636719 0.28125 C 22.921875 0.28125 26.203125 0.167969 29.316406 -0.226562 C 34.523438 -0.90625 36.21875 -3.453125 35.824219 -8.660156 C 35.765625 -10.128906 35.824219 -11.601562 35.765625 -13.128906 C 35.425781 -19.636719 35.539062 -24.675781 34.523438 -29.429688 C 33.617188 -33.730469 31.578125 -37.972656 25.917969 -38.03125 C 20.089844 -38.144531 14.316406 -38.257812 8.433594 -38.257812 C 7.980469 -38.257812 7.074219 -38.03125 6.679688 -37.804688 C 2.546875 -35.03125 1.132812 -31.976562 2.039062 -26.9375 C 2.546875 -26.429688 5.660156 -26.769531 7.242188 -26.769531 C 5.148438 -18.617188 3 -8.886719 0.792969 -0.679688 C 0.734375 -0.167969 1.074219 0.28125 1.527344 0.394531 Z M 5.660156 -34.863281 C 6.734375 -35.539062 7.753906 -36.332031 8.828125 -37.070312 C 9 -36.898438 9.113281 -36.785156 9.226562 -36.617188 C 8.09375 -35.9375 7.640625 -34.410156 5.660156 -34.863281 Z M 9 -34.523438 C 10.300781 -35.539062 11.148438 -36.898438 13.128906 -36.898438 C 12.167969 -35.03125 10.867188 -34.296875 9 -34.523438 Z M 27.277344 -32.597656 C 28.578125 -34.578125 29.65625 -35.199219 30.957031 -34.691406 C 29.203125 -32.652344 28.464844 -32.257812 27.277344 -32.597656 Z M 19.46875 -0.847656 C 18.109375 -0.847656 18.222656 -1.8125 18.109375 -2.265625 C 17.601562 -4.921875 18.394531 -6.507812 21.730469 -6.679688 C 22.636719 -6.792969 25.242188 -6.621094 25.242188 -7.1875 C 25.691406 -11.828125 23.65625 -21.789062 22.355469 -26.597656 C 21.675781 -29.089844 18.902344 -29.089844 16.582031 -28.75 C 14.429688 -28.523438 14.828125 -26.65625 14.542969 -25.296875 C 12.847656 -17.714844 11.148438 -8.601562 9.621094 -0.960938 L 2.488281 -0.960938 C 2.207031 -0.960938 2.09375 -1.246094 2.152344 -1.472656 C 4.074219 -8.941406 7.1875 -24.335938 8.09375 -26.996094 C 8.148438 -27.222656 7.980469 -27.5625 7.695312 -27.5625 C 6.507812 -27.5625 4.359375 -28.011719 3.113281 -28.011719 C 2.828125 -28.011719 2.714844 -28.296875 2.714844 -28.578125 C 2.714844 -29.710938 3.113281 -30.957031 3.113281 -32.03125 C 3.113281 -32.429688 3.394531 -32.652344 3.792969 -32.710938 C 10.46875 -34.125 17.035156 -33.957031 23.710938 -32.652344 C 25.691406 -32.316406 28.238281 -30.898438 28.976562 -29.03125 C 31.578125 -22.863281 32.429688 -14.714844 31.863281 -3.792969 C 31.863281 -2.886719 30.332031 -1.472656 28.238281 -1.246094 C 25.296875 -0.960938 22.355469 -0.847656 19.46875 -0.847656 Z M 29.9375 -30.558594 L 29.429688 -31.296875 C 30.277344 -31.917969 31.125 -32.316406 31.917969 -33.164062 L 32.484375 -32.429688 C 31.636719 -31.863281 31.183594 -30.957031 29.9375 -30.558594 Z M 30.558594 -28.691406 C 31.464844 -29.257812 32.316406 -29.882812 33.164062 -30.390625 C 33.21875 -30.164062 33.390625 -29.996094 33.445312 -29.882812 C 32.652344 -29.089844 32.089844 -28.238281 30.558594 -28.691406 Z M 12.335938 -8.660156 C 12.167969 -8.886719 12.054688 -9.113281 11.996094 -9.394531 C 12.675781 -9.734375 13.355469 -10.1875 14.089844 -10.582031 C 14.148438 -10.355469 14.828125 -10.753906 14.429688 -9.902344 C 13.695312 -9.507812 12.847656 -9.507812 12.335938 -8.660156 Z M 19.75 -6.847656 C 19.636719 -6.960938 19.46875 -7.1875 19.410156 -7.414062 C 20.261719 -7.980469 21.675781 -8.773438 22.582031 -9.394531 C 22.695312 -9.226562 22.355469 -8.886719 22.523438 -8.773438 C 21.617188 -8.09375 20.429688 -7.582031 19.75 -6.847656 Z M 11.433594 -6.847656 C 12.449219 -7.640625 13.128906 -8.660156 14.542969 -8.433594 C 13.695312 -7.582031 13.300781 -6.226562 11.433594 -6.847656 Z M 11.433594 -6.847656 "/></g></g></g><g fill="#000000" fill-opacity="1"><g transform="translate(183.312226, 77.494229)"><g><path d="M 14.714844 -0.566406 C 17.542969 -0.621094 21.902344 -0.453125 24.164062 -1.246094 C 25.691406 -1.8125 27.617188 -4.132812 27.675781 -5.714844 C 28.070312 -13.015625 27.277344 -20.375 27.789062 -27.730469 C 28.070312 -33.050781 23.316406 -37.40625 17.941406 -37.40625 C 14.148438 -37.40625 10.355469 -37.292969 6.566406 -37.011719 C 5.375 -36.898438 4.074219 -36.503906 3.113281 -35.710938 C 0.847656 -34.011719 0.167969 -31.691406 0.226562 -28.976562 C 0.226562 -26.710938 1.1875 -26.257812 3.167969 -26.316406 C 5.488281 -26.371094 7.980469 -26.371094 10.1875 -25.917969 C 11.433594 -25.75 13.015625 -24.675781 13.355469 -23.65625 C 14.148438 -20.769531 14.769531 -17.65625 14.769531 -14.65625 C 14.769531 -10.808594 13.976562 -7.015625 13.582031 -3.28125 C 13.46875 -2.773438 13.695312 -1.585938 13.753906 -0.960938 C 13.753906 -0.847656 13.976562 -0.679688 14.148438 -0.621094 C 14.316406 -0.566406 14.542969 -0.566406 14.714844 -0.566406 Z M 3.792969 -33.277344 C 3.566406 -33.445312 2.828125 -33.164062 3.339844 -33.84375 C 4.1875 -34.578125 4.472656 -35.539062 5.886719 -36.105469 C 6.054688 -35.9375 6.113281 -35.824219 6.226562 -35.710938 C 4.359375 -34.863281 4.585938 -34.011719 3.792969 -33.277344 Z M 17.089844 -33.050781 C 17.035156 -33.21875 16.921875 -33.332031 16.808594 -33.503906 C 17.714844 -34.125 18.054688 -34.804688 19.636719 -35.484375 C 19.695312 -35.3125 19.75 -35.257812 19.863281 -35.144531 C 18.957031 -34.464844 18.335938 -34.183594 17.089844 -33.050781 Z M 19.070312 -32.765625 C 18.957031 -32.992188 18.902344 -33.164062 18.730469 -33.277344 C 19.636719 -33.957031 20.601562 -34.636719 21.5625 -35.257812 C 21.675781 -35.144531 22.242188 -35.3125 21.957031 -34.636719 Z M 21.050781 -32.257812 C 20.375 -32.144531 20.769531 -32.597656 20.65625 -32.765625 C 21.902344 -33.21875 22.410156 -34.011719 23.316406 -34.636719 C 23.371094 -34.523438 23.597656 -34.351562 23.65625 -34.125 C 22.863281 -33.503906 21.902344 -32.9375 21.050781 -32.257812 Z M 23.203125 -30.671875 C 22.863281 -31.183594 22.296875 -31.804688 22.355469 -31.863281 C 22.921875 -32.484375 23.542969 -32.9375 24.222656 -33.503906 C 25.296875 -31.863281 23.882812 -31.636719 23.203125 -30.671875 Z M 15.394531 -1.472656 C 15.054688 -1.472656 14.769531 -1.640625 14.828125 -1.980469 C 15.222656 -7.300781 15.675781 -13.074219 15.789062 -18.394531 C 15.902344 -20.375 14.996094 -22.46875 14.375 -24.5625 C 13.753906 -26.316406 12.449219 -27.277344 10.640625 -27.277344 C 7.867188 -27.335938 5.148438 -27.335938 2.433594 -27.390625 C 2.152344 -27.390625 1.925781 -27.617188 1.867188 -27.898438 C 1.246094 -31.578125 1.585938 -32.371094 4.132812 -32.484375 C 8.148438 -32.597656 12.28125 -32.597656 16.296875 -32.257812 C 19.410156 -31.976562 21.675781 -28.804688 21.449219 -25.636719 C 21.449219 -24.617188 21.335938 -23.710938 21.335938 -22.695312 C 21.449219 -17.148438 21.730469 -11.65625 21.730469 -6.054688 C 21.730469 -2.09375 21.617188 -1.980469 17.601562 -1.585938 C 17.261719 -1.585938 16.296875 -1.527344 15.394531 -1.472656 Z M 23.65625 -29.484375 C 24.164062 -30.050781 24.503906 -30.785156 24.957031 -31.578125 C 25.691406 -30.164062 25.691406 -30.164062 23.65625 -29.484375 Z M 23.371094 -8.433594 C 22.695312 -8.148438 22.410156 -8.375 22.636719 -9.113281 C 23.710938 -10.414062 24.503906 -12.222656 25.804688 -13.128906 C 25.976562 -13.015625 26.484375 -13.695312 26.484375 -12.734375 C 25.355469 -11.261719 24.390625 -10.414062 23.371094 -8.433594 Z M 23.824219 -5.320312 C 23.316406 -4.867188 23.257812 -5.714844 22.976562 -5.886719 C 24.222656 -7.074219 24.957031 -8.773438 25.863281 -10.1875 C 26.203125 -10.074219 26.484375 -10.414062 26.65625 -9.734375 C 25.691406 -8.773438 25.636719 -6.566406 23.824219 -5.320312 Z M 23.824219 -5.320312 "/></g></g></g><g fill="#000000" fill-opacity="1"><g transform="translate(214.376157, 77.494229)"><g><path d="M 36.390625 -34.863281 C 36.390625 -35.484375 35.484375 -36.445312 34.972656 -36.445312 C 29.824219 -36.445312 23.371094 -38.484375 19.183594 -33.617188 C 17.714844 -31.863281 17.429688 -28.976562 17.882812 -26.65625 C 18.507812 -24.277344 19.183594 -24.222656 22.183594 -23.882812 C 22.636719 -23.769531 23.089844 -23.769531 24.164062 -23.65625 C 24.335938 -19.46875 24.503906 -16.976562 24.617188 -12.847656 C 24.675781 -10.1875 22.808594 -10.1875 20.882812 -10.128906 C 18.730469 -10.015625 18.222656 -11.261719 18.054688 -13.015625 C 17.375 -18.5625 16.523438 -24.050781 15.847656 -29.65625 C 14.828125 -37.917969 13.976562 -36.503906 6.960938 -36.21875 C 6.847656 -36.21875 6.621094 -36.21875 6.507812 -36.164062 C 3.566406 -35.484375 1.074219 -32.316406 1.867188 -29.710938 C 4.359375 -21.730469 4.359375 -10.355469 4.640625 -2.09375 C 4.695312 -0.621094 5.601562 0.566406 7.355469 0.847656 C 13.128906 2.152344 21.164062 2.265625 26.9375 -0.453125 C 31.804688 -2.660156 33.332031 -5.714844 34.972656 -10.808594 C 37.292969 -18.730469 36.390625 -26.882812 36.390625 -34.863281 Z M 27.164062 -36.164062 C 27.335938 -35.992188 27.898438 -36.332031 27.617188 -35.652344 C 26.203125 -34.636719 23.65625 -33.617188 22.242188 -32.484375 L 21.789062 -33.164062 C 21.164062 -33.785156 25.917969 -35.199219 27.164062 -36.164062 Z M 30.050781 -35.652344 C 28.691406 -34.636719 28.125 -33.84375 25.128906 -32.371094 C 25.015625 -32.542969 24.957031 -32.652344 24.730469 -32.9375 C 25.410156 -34.636719 28.410156 -35.257812 29.769531 -36.164062 C 29.9375 -35.992188 29.996094 -35.878906 30.050781 -35.652344 Z M 35.085938 -35.3125 C 33.730469 -34.464844 33.105469 -33.050781 31.070312 -32.257812 C 30.957031 -32.484375 30.730469 -32.597656 30.617188 -32.824219 C 31.976562 -33.785156 33.277344 -35.144531 34.636719 -35.992188 Z M 32.542969 -35.652344 C 31.125 -34.578125 29.769531 -33.164062 28.410156 -32.257812 C 28.296875 -32.484375 28.070312 -32.652344 27.957031 -32.9375 C 29.371094 -33.785156 30.050781 -35.652344 32.316406 -35.9375 Z M 7.753906 -35.539062 L 8.035156 -35.144531 C 6.621094 -34.011719 6.226562 -33.21875 3.90625 -31.804688 C 3.679688 -31.917969 3.621094 -32.144531 3.507812 -32.316406 C 4.867188 -33.21875 5.148438 -34.804688 7.753906 -35.539062 Z M 12.734375 -35.199219 L 12.960938 -34.804688 C 12.109375 -34.125 11.601562 -32.316406 9.789062 -32.03125 C 9.734375 -32.257812 9.621094 -32.316406 9.5625 -32.484375 C 10.808594 -33.332031 11.828125 -34.523438 12.734375 -35.199219 Z M 14.488281 -32.824219 C 13.46875 -31.804688 12.507812 -30.277344 10.753906 -29.484375 L 10.1875 -30.164062 C 9.28125 -30.617188 12.222656 -31.804688 14.148438 -33.21875 Z M 32.371094 -12.167969 C 32.316406 -6.167969 30.957031 -2.773438 25.070312 -0.621094 C 20.996094 0.960938 14.488281 1.074219 10.242188 0.507812 C 9.28125 0.394531 6.566406 -0.566406 6 -1.472656 C 5.261719 -11.148438 5.828125 -21.109375 2.433594 -30.898438 L 8.601562 -30.898438 C 9.335938 -25.976562 10.1875 -21.050781 10.980469 -16.128906 C 11.601562 -12.847656 11.996094 -9.507812 12.789062 -6.28125 C 12.902344 -5.601562 14.261719 -4.640625 14.882812 -4.753906 C 23.371094 -5.941406 26.203125 -8.207031 25.917969 -16.410156 C 25.804688 -18.5625 25.523438 -20.769531 25.296875 -22.921875 C 25.128906 -25.691406 24.050781 -25.355469 21.109375 -24.957031 C 19.75 -24.675781 19.015625 -25.183594 18.5625 -28.296875 C 18.449219 -30.332031 18.789062 -31.464844 21.164062 -31.351562 C 23.824219 -31.238281 27.335938 -31.238281 29.9375 -31.351562 C 31.578125 -31.351562 32.371094 -30.957031 32.371094 -29.203125 C 32.371094 -23.597656 32.429688 -17.769531 32.371094 -12.167969 Z M 33.898438 -24.449219 C 33.390625 -26.203125 33.390625 -26.203125 35.878906 -27.84375 Z M 34.011719 -22.296875 C 33.898438 -22.410156 33.671875 -22.46875 33.503906 -22.636719 L 35.257812 -24.902344 C 35.371094 -24.675781 35.652344 -24.617188 35.765625 -24.449219 Z M 34.183594 -13.808594 L 33.730469 -14.089844 C 33.730469 -15.335938 34.523438 -15.507812 34.75 -16.582031 L 35.539062 -16.808594 C 34.863281 -16.074219 34.691406 -14.828125 34.183594 -13.808594 Z M 16.523438 -11.546875 C 16.582031 -11.433594 16.75 -11.261719 16.75 -11.148438 C 15.507812 -9.789062 14.542969 -9.675781 13.1875 -9 L 12.960938 -9.394531 C 15.109375 -10.355469 15.5625 -11.035156 16.523438 -11.546875 Z M 18.789062 -9.789062 C 17.882812 -8.375 16.074219 -8.148438 14.65625 -6.734375 L 14.261719 -7.300781 C 15.394531 -8.714844 16.582031 -9.113281 18.054688 -10.074219 C 18.167969 -9.789062 18.5625 -10.074219 18.789062 -9.789062 Z M 18.789062 -9.789062 "/></g></g></g></svg>